<?xml version="1.0" encoding="utf-8"?>
<!-- Generator: Adobe Illustrator 21.1.0, SVG Export Plug-In . SVG Version: 6.00 Build 0)  -->
<svg version="1.1" id="Layer_1" xmlns="http://www.w3.org/2000/svg" xmlns:xlink="http://www.w3.org/1999/xlink" x="0px" y="0px"
	 viewBox="0 0 516.8 98" style="enable-background:new 0 0 516.8 98;" xml:space="preserve">
<style type="text/css">
	.st0{fill:#FFFFFF;}
	.st1{fill:#F1C40F;}
</style>
<g>
	<path class="st0" d="M317,10v78H0V10H317z M308,79V19H9v60H308z"/>
	<path class="st0" d="M58.4,36.3H37.6v8.3h19v6.8h-19v10.1h21.7v7.1H29.6V29.4h28.8V36.3z"/>
	<path class="st0" d="M78.9,68.6h-9.5l12.6-20l-12-19.2h9.8l7,12.8l7.2-12.8h9.5l-12,18.9l12.7,20.3h-9.9l-7.5-13.4L78.9,68.6z"/>
	<path class="st0" d="M145.8,65.2c-3,3.1-7.2,4.6-12.8,4.6c-5.6,0-9.9-1.5-12.8-4.6c-4-3.7-6-9.1-6-16.2c0-7.2,2-12.6,6-16.2
		c3-3.1,7.2-4.6,12.8-4.6c5.6,0,9.9,1.5,12.8,4.6c4,3.6,5.9,9,5.9,16.2C151.7,56,149.7,61.4,145.8,65.2z M140.7,59.2
		c1.9-2.4,2.9-5.8,2.9-10.2c0-4.4-1-7.8-2.9-10.2c-1.9-2.4-4.5-3.6-7.7-3.6s-5.8,1.2-7.8,3.6c-1.9,2.4-2.9,5.8-2.9,10.2
		s1,7.8,2.9,10.2c1.9,2.4,4.5,3.6,7.8,3.6S138.8,61.6,140.7,59.2z"/>
	<path class="st0" d="M186.1,30.2c2.8,0.9,5,2.6,6.7,5c1.4,2,2.3,4.1,2.8,6.3c0.5,2.3,0.7,4.4,0.7,6.5c0,5.2-1,9.6-3.1,13.2
		c-2.8,4.9-7.2,7.3-13.2,7.3h-16.9V29.4h16.9C182.5,29.4,184.5,29.7,186.1,30.2z M171.1,36.2v25.6h7.6c3.9,0,6.6-1.9,8.1-5.7
		c0.8-2.1,1.3-4.6,1.3-7.5c0-4-0.6-7.1-1.9-9.2c-1.3-2.1-3.7-3.2-7.5-3.2H171.1z"/>
	<path class="st0" d="M238.8,65.2c-3,3.1-7.2,4.6-12.8,4.6c-5.6,0-9.9-1.5-12.8-4.6c-4-3.7-6-9.1-6-16.2c0-7.2,2-12.6,6-16.2
		c3-3.1,7.2-4.6,12.8-4.6c5.6,0,9.9,1.5,12.8,4.6c4,3.6,5.9,9,5.9,16.2C244.8,56,242.8,61.4,238.8,65.2z M233.7,59.2
		c1.9-2.4,2.9-5.8,2.9-10.2c0-4.4-1-7.8-2.9-10.2c-1.9-2.4-4.5-3.6-7.7-3.6c-3.2,0-5.8,1.2-7.8,3.6c-1.9,2.4-2.9,5.8-2.9,10.2
		s1,7.8,2.9,10.2c1.9,2.4,4.5,3.6,7.8,3.6C229.2,62.8,231.8,61.6,233.7,59.2z"/>
	<path class="st0" d="M262.6,56.5c0.3,1.8,0.8,3.1,1.5,4c1.4,1.6,3.7,2.4,7,2.4c2,0,3.6-0.2,4.8-0.6c2.3-0.8,3.5-2.3,3.5-4.5
		c0-1.3-0.6-2.3-1.7-3c-1.1-0.7-3-1.3-5.4-1.8L268,52c-4.2-0.9-7-1.9-8.6-3c-2.6-1.8-4-4.6-4-8.5c0-3.5,1.3-6.4,3.9-8.8
		c2.6-2.3,6.4-3.5,11.4-3.5c4.2,0,7.8,1.1,10.7,3.3c3,2.2,4.5,5.4,4.6,9.5h-7.9c-0.1-2.4-1.2-4-3.2-5c-1.3-0.7-2.9-1-4.9-1
		c-2.2,0-3.9,0.4-5.2,1.3c-1.3,0.9-1.9,2-1.9,3.6c0,1.4,0.6,2.4,1.9,3.1c0.8,0.5,2.6,1,5.2,1.6l6.9,1.6c3,0.7,5.3,1.7,6.8,2.8
		c2.3,1.8,3.5,4.5,3.5,8c0,3.6-1.4,6.6-4.2,8.9c-2.8,2.4-6.7,3.6-11.7,3.6c-5.2,0-9.2-1.2-12.2-3.5c-3-2.3-4.4-5.5-4.4-9.6H262.6z"
		/>
	
		<rect x="482.5" y="7.6" transform="matrix(-1.836970e-16 1 -1 -1.836970e-16 516.0739 -450.9261)" class="st1" width="2" height="50"/>
	<g>
		<path class="st0" d="M347.3,25.4h6.5c1.1,0,2,0.2,2.7,0.5c1.3,0.6,2,1.7,2,3.4c0,0.9-0.2,1.6-0.5,2.1s-0.9,1-1.5,1.3
			c0.6,0.2,1,0.5,1.3,0.9s0.4,1,0.5,1.8l0.1,1.9c0,0.5,0.1,1,0.1,1.2c0.1,0.5,0.3,0.7,0.6,0.9v0.3h-2.4c-0.1-0.1-0.1-0.3-0.2-0.5
			s-0.1-0.6-0.1-1.1l-0.1-2.4c0-0.9-0.4-1.6-1-1.9c-0.4-0.2-0.9-0.3-1.7-0.3h-4.3v6.2h-1.9V25.4z M353.6,32c0.9,0,1.6-0.2,2.1-0.5
			c0.5-0.4,0.8-1,0.8-2c0-1-0.4-1.7-1.1-2.1c-0.4-0.2-0.9-0.3-1.5-0.3h-4.6V32H353.6z"/>
		<path class="st0" d="M361.7,25.4h10.4v1.8h-8.5v4.4h7.9v1.7h-7.9V38h8.7v1.7h-10.6V25.4z"/>
		<path class="st0" d="M374.8,25.4h1.9V38h7.2v1.7h-9.1V25.4z"/>
		<path class="st0" d="M386.4,25.4h2v14.3h-2V25.4z"/>
		<path class="st0" d="M401,25.8c1.4,0.7,2.3,2.1,2.6,3.9h-1.9c-0.2-1-0.7-1.8-1.4-2.3s-1.6-0.7-2.7-0.7c-1.3,0-2.4,0.5-3.3,1.5
			s-1.3,2.5-1.3,4.5c0,1.7,0.4,3.1,1.1,4.2c0.7,1.1,1.9,1.6,3.6,1.6c1.3,0,2.3-0.4,3.2-1.1s1.3-2,1.3-3.6h-4.5v-1.6h6.3v7.7h-1.2
			l-0.5-1.8c-0.6,0.7-1.2,1.2-1.7,1.5c-0.8,0.5-1.9,0.7-3.2,0.7c-1.7,0-3.1-0.5-4.3-1.7c-1.3-1.4-2-3.3-2-5.7c0-2.4,0.6-4.3,1.9-5.7
			c1.2-1.4,2.8-2,4.7-2C398.9,25,400.1,25.3,401,25.8z"/>
		<path class="st0" d="M407.5,25.4h2v14.3h-2V25.4z"/>
		<path class="st0" d="M424.4,27.4c1,1.3,1.4,2.9,1.4,4.9c0,2.1-0.5,3.9-1.6,5.3c-1.3,1.7-3.1,2.5-5.5,2.5c-2.2,0-3.9-0.7-5.2-2.2
			c-1.1-1.4-1.7-3.2-1.7-5.3c0-1.9,0.5-3.6,1.4-5c1.2-1.8,3.1-2.7,5.5-2.7C421.3,25,423.2,25.8,424.4,27.4z M422.7,36.6
			c0.8-1.2,1.1-2.6,1.1-4.2c0-1.7-0.4-3-1.3-4.1c-0.9-1-2.1-1.5-3.6-1.5c-1.5,0-2.7,0.5-3.6,1.5c-0.9,1-1.4,2.5-1.4,4.5
			c0,1.6,0.4,2.9,1.2,4c0.8,1.1,2.1,1.6,3.9,1.6C420.7,38.4,421.9,37.8,422.7,36.6z"/>
		<path class="st0" d="M428.2,25.4h2.3l7.2,11.6V25.4h1.9v14.3h-2.2L430,28.2v11.6h-1.9V25.4z"/>
	</g>
	<g>
		<path class="st0" d="M347.1,52.1h2V58h7.4v-5.9h2v14.3h-2v-6.7H349v6.7h-2V52.1z"/>
		<path class="st0" d="M371.9,52.1v1.7h-4.8v12.6h-2V53.8h-4.8v-1.7H371.9z"/>
		<path class="st0" d="M373.6,52.1h2.8l4.1,12.1l4.1-12.1h2.8v14.3h-1.9V58c0-0.3,0-0.8,0-1.5s0-1.4,0-2.2l-4.1,12.1h-1.9l-4.1-12.1
			v0.4c0,0.4,0,0.9,0,1.6s0,1.2,0,1.6v8.5h-1.9V52.1z"/>
		<path class="st0" d="M390.3,52.1h1.9v12.6h7.2v1.7h-9.1V52.1z"/>
		<path class="st0" d="M416.4,52.1v1.7h-4.8v12.6h-2V53.8h-4.8v-1.7H416.4z"/>
		<path class="st0" d="M418.3,52.1h10.4v1.8h-8.5v4.4h7.9v1.7h-7.9v4.9h8.7v1.7h-10.6V52.1z"/>
		<path class="st0" d="M431.4,52.1h2.8l4.1,12.1l4.1-12.1h2.8v14.3h-1.9V58c0-0.3,0-0.8,0-1.5s0-1.4,0-2.2l-4.1,12.1h-1.9l-4.1-12.1
			v0.4c0,0.4,0,0.9,0,1.6s0,1.2,0,1.6v8.5h-1.9V52.1z"/>
		<path class="st0" d="M448.3,52.1h6.4c1.3,0,2.3,0.4,3.1,1.1s1.2,1.7,1.2,3c0,1.1-0.3,2.1-1,2.9s-1.8,1.2-3.2,1.2h-4.5v6.1h-1.9
			V52.1z M455.9,54.1c-0.4-0.2-1-0.3-1.8-0.3h-3.8v5h3.8c0.9,0,1.6-0.2,2.1-0.6s0.8-1,0.8-2C457,55.1,456.7,54.4,455.9,54.1z"/>
		<path class="st0" d="M461.5,52.1h1.9v12.6h7.2v1.7h-9.1V52.1z"/>
		<path class="st0" d="M476.8,52.1h2.2l5.2,14.3h-2.1l-1.5-4.3H475l-1.6,4.3h-2L476.8,52.1z M480,60.5l-2.2-6.3l-2.3,6.3H480z"/>
		<path class="st0" d="M494.9,52.1v1.7h-4.8v12.6h-2V53.8h-4.8v-1.7H494.9z"/>
		<path class="st0" d="M496.9,52.1h10.4v1.8h-8.5v4.4h7.9v1.7h-7.9v4.9h8.7v1.7h-10.6V52.1z"/>
	</g>
</g>
</svg>
